HIERARCHY
ROOT hip
{
	OFFSET 0.000000 0.000000 0.000000
	CHANNELS 6 Xposition Yposition Zposition Xrotation Zrotation Yrotation 
	JOINT abdomen
	{
		OFFSET 0.000000 3.422050 0.000000
		CHANNELS 3 Xrotation Zrotation Yrotation 
		JOINT chest
		{
			OFFSET 0.000000 8.486693 -0.684411
			CHANNELS 3 Xrotation Zrotation Yrotation 
			JOINT neck
			{
				OFFSET 0.000000 10.266162 -0.273764
				CHANNELS 3 Xrotation Zrotation Yrotation 
				JOINT head
				{
					OFFSET 0.000000 3.148285 0.000000
					CHANNELS 3 Xrotation Zrotation Yrotation 
					End Site
					{
						OFFSET 0.000000 3.148289 0.000000
					}
				}
			}
			JOINT lCollar
			{
				OFFSET 3.422053 6.707223 -0.821293
				CHANNELS 3 Yrotation Zrotation Xrotation 
				JOINT lShldr
				{
					OFFSET 3.285171 0.000000 0.000000
					CHANNELS 3 Zrotation Yrotation Xrotation 
					JOINT lForeArm
					{
						OFFSET 10.129278 0.000000 0.000000
						CHANNELS 3 Yrotation Zrotation Xrotation 
						JOINT lHand
						{
							OFFSET 8.486692 0.000000 0.000000
							CHANNELS 3 Zrotation Yrotation Xrotation 
							End Site
							{
								OFFSET 4.106464 0.000000 0.000000
							}
						}
					}
				}
			}
			JOINT rCollar
			{
				OFFSET -3.558935 6.707223 -0.821293
				CHANNELS 3 Yrotation Zrotation Xrotation 
				JOINT rShldr
				{
					OFFSET -3.148289 0.000000 0.000000
					CHANNELS 3 Zrotation Yrotation Xrotation 
					JOINT rForeArm
					{
						OFFSET -10.266159 0.000000 0.000000
						CHANNELS 3 Yrotation Zrotation Xrotation 
						JOINT rHand
						{
							OFFSET -8.349810 0.000000 0.000000
							CHANNELS 3 Zrotation Yrotation Xrotation 
							End Site
							{
								OFFSET -4.106464 0.000000 0.000000
							}
						}
					}
				}
			}
		}
	}
	JOINT lThigh
	{
		OFFSET 5.338403 -1.642589 1.368821
		CHANNELS 3 Xrotation Zrotation Yrotation 
		JOINT lShin
		{
			OFFSET -2.053232 -20.121670 0.000000
			CHANNELS 3 Xrotation Zrotation Yrotation 
			JOINT lFoot
			{
				OFFSET 0.000000 -19.300380 -1.231939
				CHANNELS 3 Xrotation Yrotation Zrotation 
				End Site
				{
					OFFSET 0.000000 -2.463878 4.653993
				}
			}
		}
	}
	JOINT rThigh
	{
		OFFSET -5.338403 -1.642589 1.368821
		CHANNELS 3 Xrotation Zrotation Yrotation 
		JOINT rShin
		{
			OFFSET 2.053232 -20.121670 0.000000
			CHANNELS 3 Xrotation Zrotation Yrotation 
			JOINT rFoot
			{
				OFFSET 0.000000 -19.300380 -1.231939
				CHANNELS 3 Xrotation Yrotation Zrotation 
				End Site
				{
					OFFSET 0.000000 -2.463878 4.653993
				}
			}
		}
	}
}
MOTION
Frames: 8
Frame Time: 0.033264
-44.001762 5.996777 0.000000 -90.002609 -0.000907 88.998940 -0.563762 -0.283552 -0.413015 -0.689711 -1.364568 -0.969328 -0.317553 13.650790 -0.052566 -4.335564 -1.586172 -12.450643 6.556786 13.536053 -0.692557 108.996346 -74.706154 176.208817 -21.910713 -4.853621 -31.798670 -70.101845 17.598154 10.694193 -8.542812 -18.238823 -1.130516 -108.362312 72.892891 177.082642 40.490734 -1.227597 -36.021114 51.996784 0.000000 0.000000 -13.243490 -11.709723 -7.408367 50.535084 6.871357 9.106057 66.665161 1.639620 82.576881 -35.938610 -45.991364 -43.560513 134.963303 19.423637 18.209698 -3.309244 24.840595 13.485176 
-44.001762 5.996777 0.000000 -90.002609 -0.000907 88.998940 -0.563762 -0.283552 -0.413015 -0.689711 -1.364568 -0.969328 -0.320754 13.585230 -0.052913 -4.306528 -1.897996 -12.499982 6.556786 13.536053 -0.692557 108.996346 -74.706154 176.208817 -21.910713 -4.853621 -31.798670 -70.101845 17.598154 10.694193 -8.542812 -18.238821 -1.130516 -108.362312 72.892891 177.082642 40.490730 -1.227597 -36.021114 51.996784 0.000000 0.000000 -13.243490 -11.709723 -7.408367 50.535084 6.871357 9.106057 66.665161 1.639622 82.576881 -35.938610 -45.991360 -43.560509 134.963303 19.423637 18.209698 -3.309244 24.840593 13.485176 
-44.001762 5.996777 0.000000 -90.002609 -0.000907 88.998940 -0.563762 -0.283552 -0.413015 -0.689711 -1.364568 -0.969328 -0.323954 13.519668 -0.053255 -4.277236 -2.209581 -12.549454 6.556786 13.536053 -0.692557 108.996346 -74.706154 176.208817 -21.910713 -4.853621 -31.798670 -70.101845 17.598154 10.694193 -8.542812 -18.238821 -1.130516 -108.362312 72.892891 177.082642 40.490730 -1.227597 -36.021114 51.996784 0.000000 0.000000 -13.243490 -11.709723 -7.408367 50.535084 6.871357 9.106057 66.665161 1.639622 82.576881 -35.938610 -45.991360 -43.560509 134.963303 19.423637 18.209698 -3.309244 24.840593 13.485176 
-44.001762 5.996777 0.000000 -90.002609 -0.000907 88.998940 -0.563762 -0.283552 -0.413015 -0.689711 -1.364568 -0.969328 -0.327152 13.454104 -0.053593 -4.247690 -2.520921 -12.599062 6.556786 13.536053 -0.692557 108.996346 -74.706154 176.208817 -21.910713 -4.853621 -31.798670 -70.101845 17.598154 10.694193 -8.542812 -18.238821 -1.130516 -108.362312 72.892891 177.082642 40.490730 -1.227597 -36.021114 51.996784 0.000000 0.000000 -13.243490 -11.709723 -7.408367 50.535084 6.871357 9.106057 66.665161 1.639622 82.576881 -35.938610 -45.991360 -43.560509 134.963303 19.423637 18.209698 -3.309244 24.840593 13.485176 
-44.001762 5.996777 0.000000 -90.002609 -0.000907 88.998940 -0.563762 -0.283552 -0.413015 -0.689711 -1.364568 -0.969328 -0.330349 13.388540 -0.053928 -4.217886 -2.832016 -12.648806 6.556786 13.536053 -0.692557 108.996346 -74.706154 176.208817 -21.910713 -4.853621 -31.798670 -70.101845 17.598154 10.694193 -8.542812 -18.238821 -1.130516 -108.362312 72.892891 177.082642 40.490730 -1.227597 -36.021114 51.996784 0.000000 0.000000 -13.243490 -11.709723 -7.408367 50.535084 6.871357 9.106057 66.665161 1.639622 82.576881 -35.938610 -45.991360 -43.560509 134.963303 19.423637 18.209698 -3.309244 24.840593 13.485176 
-44.001762 5.996777 0.000000 -90.002609 -0.000907 88.998940 -0.563762 -0.283552 -0.413015 -0.689711 -1.364568 -0.969328 -0.333545 13.322975 -0.054259 -4.187826 -3.142856 -12.698691 6.556786 13.536053 -0.692557 108.996346 -74.706154 176.208817 -21.910713 -4.853621 -31.798670 -70.101845 17.598154 10.694193 -8.542812 -18.238821 -1.130516 -108.362312 72.892891 177.082642 40.490730 -1.227597 -36.021114 51.996784 0.000000 0.000000 -13.243490 -11.709723 -7.408367 50.535084 6.871357 9.106057 66.665161 1.639622 82.576881 -35.938610 -45.991360 -43.560509 134.963303 19.423637 18.209698 -3.309244 24.840593 13.485176 
-44.001762 5.996777 0.000000 -90.002609 -0.000907 88.998940 -0.563762 -0.283552 -0.413015 -0.689711 -1.364568 -0.969328 -0.336740 13.257405 -0.054586 -4.157510 -3.453441 -12.748720 6.556786 13.536053 -0.692557 108.996346 -74.706154 176.208817 -21.910713 -4.853621 -31.798670 -70.101845 17.598154 10.694193 -8.542812 -18.238821 -1.130516 -108.362312 72.892891 177.082642 40.490730 -1.227597 -36.021114 51.996784 0.000000 0.000000 -13.243490 -11.709723 -7.408367 50.535084 6.871357 9.106057 66.665161 1.639622 82.576881 -35.938610 -45.991360 -43.560509 134.963303 19.423637 18.209698 -3.309244 24.840593 13.485176 
-44.001762 5.996777 0.000000 -90.002609 -0.000907 88.998940 -0.563762 -0.283552 -0.413015 -0.689711 -1.364568 -0.969328 -0.339933 13.191839 -0.054909 -4.126934 -3.763766 -12.798894 6.556786 13.536053 -0.692557 108.996346 -74.706154 176.208817 -21.910713 -4.853621 -31.798670 -70.101845 17.598154 10.694193 -8.542812 -18.238821 -1.130516 -108.362312 72.892891 177.082642 40.490730 -1.227597 -36.021114 51.996784 0.000000 0.000000 -13.243490 -11.709723 -7.408367 50.535084 6.871357 9.106057 66.665161 1.639622 82.576881 -35.938610 -45.991364 -43.560509 134.963303 19.423637 18.209698 -3.309244 24.840593 13.485176 
